<svg width="1440" height="1324" viewBox="0 0 1440 1324" xmlns="http://www.w3.org/2000/svg"><style>
        text {
          font-family: system-ui, sans-serif;
          fill: #000;
        }
        .bg {
          fill: #fff;
        }
        .icon {
          fill: #000;
          opacity: 0.8;
        }

        /* header/sidebar styles */
        .header {
          fill: #f8f8f8;
        }
        .headerDate {
          font-size: 14px;
          font-weight: bold;
        }
        .logoIcon {
          fill: #4660F9;
        }
        .tick {
          fill: #666;
          font-weight: bold;
        }
        .tickLine {
          stroke: #666;
        }
        .sidebarDivider {
          stroke: #ddd;
        }

        /* track styles */
        .boxText {
          opacity: 0.7;
        }
        .date {
          fill: #999;
          font-size: 12px;
        }
        .progressOuter {
          fill: rgba(255,255,255,0.3);
        }
        .progressInner {
          fill: rgba(0,0,0,0.5);
        }
        .closedGroup &gt; text, .closedGroup &gt; use {
          fill: #999;
        }
        .subtext {
          opacity: 0.7;
        }

        /* nested track styles */
        .nestedBox {
          opacity: 0.6;
        }
        .nestedBg {
          fill: #f8f8f8;
        }
      </style><defs><filter id="shadow"><feDropShadow dx="0" dy="1" stdDeviation="1" flood-color="#ccc"></feDropShadow></filter><clipPath id="dont-overlap-sidebar"><rect x="350" y="0" width="1090" height="1324"></rect></clipPath><clipPath id="sidebar-contents"><rect x="0" y="0" width="350" height="1324"></rect></clipPath><linearGradient id="sidebarShadow" x1="0%" y1="0%" x2="100%" y2="0%"><stop offset="0%" style="stop-color: rgb(100, 100, 100); stop-opacity: 0.15;"></stop><stop offset="100%" style="stop-color: rgb(100, 100, 100); stop-opacity: 0;"></stop></linearGradient><path id="projectIcon" d="M4 4v2h8V4zm0-2h8a2 2 0 012 2v2a2 2 0 01-2 2H4a2 2 0 01-2-2V4a2 2 0 012-2zm4 9v2h12v-2zm0-2h12a2 2 0 012 2v2a2 2 0 01-2 2H8a2 2 0 01-2-2v-2a2 2 0 012-2zm-4 9v2h3v-2zm0-2h3a2 2 0 012 2v2a2 2 0 01-2 2H4a2 2 0 01-2-2v-2a2 2 0 012-2z" transform="scale(0.7)"></path><path id="epicIcon" d="M4.667 2A.667.667 0 004 2.667v11.231l3.12-2.738a1.333 1.333 0 011.76 0L12 13.898V2.667A.667.667 0 0011.333 2zM11.333.667a2 2 0 012 2v11.231a1.333 1.333 0 01-2.212 1.003L8 12.163 4.88 14.9a1.333 1.333 0 01-2.213-1.003V2.667a2 2 0 012-2zM9.667 3.333H6v6h4V8H7.333V7h2V5.667h-2v-1h2.334z"></path><path id="epicIconClosed" d="M12 8.04a.667.667 0 111.333 0v5.778a1.333 1.333 0 01-2.234.983L8 11.96 4.901 14.8a1.333 1.333 0 01-2.234-.982V2.667a2 2 0 012-2h3.349a.667.667 0 110 1.333h-3.35A.667.667 0 004 2.667v11.15l3.099-2.84a1.333 1.333 0 011.802 0L12 13.817zM9.805 3.529l.862.862 2.862-2.862a.667.667 0 11.942.942l-3.333 3.334a.667.667 0 01-.943 0L8.862 4.47a.667.667 0 11.943-.942z"></path><path id="zhLogo" d="M11.228 3.727V1.076H.327v2.651h7.229L.168 12.928v2.674h11.22v-2.674h-7.57zm5.644.702c-3.127 0-5.484 2.583-5.484 5.756 0 3.152 2.449 5.735 5.826 5.735 1.835 0 3.376-.748 4.192-1.7l-1.428-1.882a3.686 3.686 0 01-2.651 1.134c-1.678 0-2.833-1.088-3.106-2.607h8.046c.045-.18.068-.566.068-.906 0-3.127-2.358-5.53-5.463-5.53zm-2.605 4.69c.318-1.382 1.269-2.334 2.652-2.334 1.292 0 2.266.793 2.583 2.334h-5.235zm42.975 1.497c0 1.586-.929 2.651-2.312 2.651-1.383 0-2.312-1.065-2.312-2.651v-5.87h-2.766v6.074c0 3.037 2.017 5.055 5.077 5.055s5.078-2.017 5.078-5.055V4.746h-2.765v5.87zM67.894 4.43v-.002c-1.405 0-2.516.566-3.308 1.496V.008H61.82v15.594h2.765v-1.087c.77.884 1.88 1.405 3.308 1.405 3.015 0 5.213-2.47 5.213-5.757 0-3.377-2.334-5.734-5.213-5.734zm-.43 8.884c-1.654 0-2.878-1.383-2.878-3.128s1.224-3.15 2.878-3.15c1.677 0 2.878 1.405 2.878 3.15 0 1.746-1.2 3.128-2.878 3.128zm-38.749-8.9c-2.976 0-4.938 2.018-4.938 5.054v6.075h2.69v-5.87c0-1.587.904-2.652 2.248-2.652 1.344 0 2.247 1.065 2.247 2.651v5.871h2.69V9.468c0-3.037-1.962-5.054-4.937-5.054zm16.376 2.44H38.18v-5.78h-2.834v14.527h2.834V9.505h6.912V15.6h2.855V1.075h-2.855z"></path></defs><rect x="0" y="0" width="1440" height="1324" class="bg"></rect><g class="track"><title>Validación de Resultados</title><g class="" clip-path="url(#sidebar-contents)"><use href="#projectIcon" x="20" y="76" class="icon"></use><text x="40" y="88">Validación de Resultados</text><text x="20" y="106" class="date">Jan 23, 2022 - Feb 7</text><line x1="0" x2="1440" y1="124" y2="124" stroke="#e7e7e7"></line></g><rect x="1068.197463768116" y="66" width="153.2608695652175" height="50" rx="2" clip-path="url(#dont-overlap-sidebar)" style="filter: url(&quot;#shadow&quot;); fill: rgb(182, 162, 221);"></rect><g class=""><use href="#projectIcon" x="1078.197463768116" y="81" class="icon"></use><text x="1098.197463768116" y="94" class="boxText" clip-path="url(#dont-overlap-sidebar)">Validación de Resultados<tspan class="subtext">– No Epics yet</tspan></text></g></g><g class="track"><title>Análisis Cuantitativo</title><rect x="0" y="124" width="1440" height="66" class="nestedBg"></rect><g class="" clip-path="url(#sidebar-contents)"><use href="#epicIcon" x="40" y="142" class="icon"></use><text x="60" y="154">Análisis Cuantitativo</text><text x="40" y="172" class="date">Jan 23, 2022 - Feb 2</text><line x1="0" x2="1440" y1="190" y2="190" stroke="#e7e7e7"></line></g><rect x="1068.197463768116" y="132" width="102.17391304347825" height="50" rx="2" class="nestedBox" clip-path="url(#dont-overlap-sidebar)" style="filter: url(&quot;#shadow&quot;); fill: rgb(182, 162, 221);"></rect><g class=""><use href="#epicIcon" x="1078.197463768116" y="147" class="icon"></use><text x="1098.197463768116" y="160" class="boxText" clip-path="url(#dont-overlap-sidebar)">Análisis Cuantitativo<tspan class="subtext"></tspan></text></g></g><g class="track"><title>Análisis Cualitativo</title><rect x="0" y="190" width="1440" height="66" class="nestedBg"></rect><g class="" clip-path="url(#sidebar-contents)"><use href="#epicIcon" x="40" y="208" class="icon"></use><text x="60" y="220">Análisis Cualitativo</text><text x="40" y="238" class="date">Jan 23, 2022 - Feb 2</text><line x1="0" x2="1440" y1="256" y2="256" stroke="#e7e7e7"></line></g><rect x="1068.197463768116" y="198" width="102.17391304347825" height="50" rx="2" class="nestedBox" clip-path="url(#dont-overlap-sidebar)" style="filter: url(&quot;#shadow&quot;); fill: rgb(182, 162, 221);"></rect><g class=""><use href="#epicIcon" x="1078.197463768116" y="213" class="icon"></use><text x="1098.197463768116" y="226" class="boxText" clip-path="url(#dont-overlap-sidebar)">Análisis Cualitativo<tspan class="subtext"></tspan></text></g></g><g class="track"><title>Propuestas para Trabajos Futuros</title><rect x="0" y="256" width="1440" height="66" class="nestedBg"></rect><g class="" clip-path="url(#sidebar-contents)"><use href="#epicIcon" x="40" y="274" class="icon"></use><text x="60" y="286">Propuestas para Trabajos Futuros</text><text x="40" y="304" class="date">Jan 30, 2022 - Feb 7</text><line x1="0" x2="1440" y1="322" y2="322" stroke="#e7e7e7"></line></g><rect x="1139.7192028985507" y="264" width="81.73913043478274" height="50" rx="2" class="nestedBox" clip-path="url(#dont-overlap-sidebar)" style="filter: url(&quot;#shadow&quot;); fill: rgb(182, 162, 221);"></rect><g class=""><use href="#epicIcon" x="1149.7192028985507" y="279" class="icon"></use><text x="1169.7192028985507" y="292" class="boxText" clip-path="url(#dont-overlap-sidebar)">Propuestas para Trabajos Futuros<tspan class="subtext"></tspan></text></g></g><g class="track"><title>Procesamiento y Reconocimiento de Señales</title><g class="" clip-path="url(#sidebar-contents)"><use href="#projectIcon" x="20" y="340" class="icon"></use><text x="40" y="352">Procesamiento y Reconocimiento de Señ…</text><text x="20" y="370" class="date">Dec 18, 2021 - Jan 24, 2022</text><line x1="0" x2="1440" y1="388" y2="388" stroke="#e7e7e7"></line></g><rect x="700.3713768115942" y="330" width="378.0434782608695" height="50" rx="2" clip-path="url(#dont-overlap-sidebar)" style="filter: url(&quot;#shadow&quot;); fill: rgb(200, 205, 234);"></rect><g class=""><use href="#projectIcon" x="710.3713768115942" y="345" class="icon"></use><text x="730.3713768115942" y="358" class="boxText" clip-path="url(#dont-overlap-sidebar)">Procesamiento y Reconocimiento de Señales<tspan class="subtext">– No Epics yet</tspan></text></g></g><g class="track"><title>RANSAC</title><rect x="0" y="388" width="1440" height="66" class="nestedBg"></rect><g class="" clip-path="url(#sidebar-contents)"><use href="#epicIcon" x="40" y="406" class="icon"></use><text x="60" y="418">RANSAC</text><text x="40" y="436" class="date">Dec 26, 2021 - Jan 5, 2022</text><line x1="0" x2="1440" y1="454" y2="454" stroke="#e7e7e7"></line></g><rect x="782.1105072463768" y="396" width="102.17391304347836" height="50" rx="2" class="nestedBox" clip-path="url(#dont-overlap-sidebar)" style="filter: url(&quot;#shadow&quot;); fill: rgb(200, 205, 234);"></rect><g class=""><use href="#epicIcon" x="792.1105072463768" y="411" class="icon"></use><text x="812.1105072463768" y="424" class="boxText" clip-path="url(#dont-overlap-sidebar)">RANSAC<tspan class="subtext"></tspan></text></g></g><g class="track"><title>Transformada de Hough</title><rect x="0" y="454" width="1440" height="66" class="nestedBg"></rect><g class="" clip-path="url(#sidebar-contents)"><use href="#epicIcon" x="40" y="472" class="icon"></use><text x="60" y="484">Transformada de Hough</text><text x="40" y="502" class="date">Dec 26, 2021 - Jan 5, 2022</text><line x1="0" x2="1440" y1="520" y2="520" stroke="#e7e7e7"></line></g><rect x="782.1105072463768" y="462" width="102.17391304347836" height="50" rx="2" class="nestedBox" clip-path="url(#dont-overlap-sidebar)" style="filter: url(&quot;#shadow&quot;); fill: rgb(200, 205, 234);"></rect><g class=""><use href="#epicIcon" x="792.1105072463768" y="477" class="icon"></use><text x="812.1105072463768" y="490" class="boxText" clip-path="url(#dont-overlap-sidebar)">Transformada de Hough<tspan class="subtext"></tspan></text></g></g><g class="track"><title>Umbralisación</title><rect x="0" y="520" width="1440" height="66" class="nestedBg"></rect><g class="" clip-path="url(#sidebar-contents)"><use href="#epicIcon" x="40" y="538" class="icon"></use><text x="60" y="550">Umbralisación</text><text x="40" y="568" class="date">Dec 19 - Dec 26</text><line x1="0" x2="1440" y1="586" y2="586" stroke="#e7e7e7"></line></g><rect x="710.588768115942" y="528" width="71.52173913043475" height="50" rx="2" class="nestedBox" clip-path="url(#dont-overlap-sidebar)" style="filter: url(&quot;#shadow&quot;); fill: rgb(200, 205, 234);"></rect><g class=""><use href="#epicIcon" x="720.588768115942" y="543" class="icon"></use><text x="740.588768115942" y="556" class="boxText" clip-path="url(#dont-overlap-sidebar)">Umbralisación<tspan class="subtext"></tspan></text></g></g><g class="track"><title>Reconocimiento y aislamiento de la señal</title><rect x="0" y="586" width="1440" height="66" class="nestedBg"></rect><g class="" clip-path="url(#sidebar-contents)"><use href="#epicIcon" x="40" y="604" class="icon"></use><text x="60" y="616">Reconocimiento y aislamiento de la se…</text><text x="40" y="634" class="date">Dec 29, 2021 - Jan 9, 2022</text><line x1="0" x2="1440" y1="652" y2="652" stroke="#e7e7e7"></line></g><rect x="812.7626811594203" y="594" width="112.39130434782612" height="50" rx="2" class="nestedBox" clip-path="url(#dont-overlap-sidebar)" style="filter: url(&quot;#shadow&quot;); fill: rgb(200, 205, 234);"></rect><g class=""><use href="#epicIcon" x="822.7626811594203" y="609" class="icon"></use><text x="842.7626811594203" y="622" class="boxText" clip-path="url(#dont-overlap-sidebar)">Reconocimiento y aislamiento de la señal<tspan class="subtext"></tspan></text></g></g><g class="track"><title>Técnica de Inteligencia Artificial</title><rect x="0" y="652" width="1440" height="66" class="nestedBg"></rect><g class="" clip-path="url(#sidebar-contents)"><use href="#epicIcon" x="40" y="670" class="icon"></use><text x="60" y="682">Técnica de Inteligencia Artificial</text><text x="40" y="700" class="date">Jan 9, 2022 - Jan 24</text><line x1="0" x2="1440" y1="718" y2="718" stroke="#e7e7e7"></line></g><rect x="925.1539855072464" y="660" width="153.26086956521738" height="50" rx="2" class="nestedBox" clip-path="url(#dont-overlap-sidebar)" style="filter: url(&quot;#shadow&quot;); fill: rgb(200, 205, 234);"></rect><g class=""><use href="#epicIcon" x="935.1539855072464" y="675" class="icon"></use><text x="955.1539855072464" y="688" class="boxText" clip-path="url(#dont-overlap-sidebar)">Técnica de Inteligencia Artificial<tspan class="subtext"></tspan></text></g></g><g class="track"><title>Acondicionamiento de Imágenes</title><g class="" clip-path="url(#sidebar-contents)"><use href="#projectIcon" x="20" y="736" class="icon"></use><text x="40" y="748">Acondicionamiento de Imágenes</text><text x="20" y="766" class="date">Nov 20 - Dec 18</text><line x1="0" x2="1440" y1="784" y2="784" stroke="#e7e7e7"></line></g><rect x="414.28442028985506" y="726" width="286.0869565217392" height="50" rx="2" clip-path="url(#dont-overlap-sidebar)" style="filter: url(&quot;#shadow&quot;); fill: rgb(133, 213, 250);"></rect><g class=""><use href="#projectIcon" x="424.28442028985506" y="741" class="icon"></use><text x="444.28442028985506" y="754" class="boxText" clip-path="url(#dont-overlap-sidebar)">Acondicionamiento de Imágenes<tspan class="subtext">– No Epics yet</tspan></text></g></g><g class="track"><title>Operaciones Morfológicas</title><rect x="0" y="784" width="1440" height="66" class="nestedBg"></rect><g class="" clip-path="url(#sidebar-contents)"><use href="#epicIcon" x="40" y="802" class="icon"></use><text x="60" y="814">Operaciones Morfológicas</text><text x="40" y="832" class="date">Dec 5 - Dec 18</text><line x1="0" x2="1440" y1="850" y2="850" stroke="#e7e7e7"></line></g><rect x="567.5452898550725" y="792" width="132.82608695652175" height="50" rx="2" class="nestedBox" clip-path="url(#dont-overlap-sidebar)" style="filter: url(&quot;#shadow&quot;); fill: rgb(133, 213, 250);"></rect><g class=""><use href="#epicIcon" x="577.5452898550725" y="807" class="icon"></use><text x="597.5452898550725" y="820" class="boxText" clip-path="url(#dont-overlap-sidebar)">Operaciones Morfológicas<tspan class="subtext"></tspan></text></g></g><g class="track"><title>Definición de Umbrales</title><rect x="0" y="850" width="1440" height="66" class="nestedBg"></rect><g class="" clip-path="url(#sidebar-contents)"><use href="#epicIcon" x="40" y="868" class="icon"></use><text x="60" y="880">Definición de Umbrales</text><text x="40" y="898" class="date">Dec 5 - Dec 17</text><line x1="0" x2="1440" y1="916" y2="916" stroke="#e7e7e7"></line></g><rect x="567.5452898550725" y="858" width="122.60869565217388" height="50" rx="2" class="nestedBox" clip-path="url(#dont-overlap-sidebar)" style="filter: url(&quot;#shadow&quot;); fill: rgb(133, 213, 250);"></rect><g class=""><use href="#epicIcon" x="577.5452898550725" y="873" class="icon"></use><text x="597.5452898550725" y="886" class="boxText" clip-path="url(#dont-overlap-sidebar)">Definición de Umbrales<tspan class="subtext"></tspan></text></g></g><g class="track"><title>Espacios de Color</title><rect x="0" y="916" width="1440" height="66" class="nestedBg"></rect><g class="" clip-path="url(#sidebar-contents)"><use href="#epicIcon" x="40" y="934" class="icon"></use><text x="60" y="946">Espacios de Color</text><text x="40" y="964" class="date">Nov 20 - Dec 4</text><line x1="0" x2="1440" y1="982" y2="982" stroke="#e7e7e7"></line></g><rect x="414.28442028985506" y="924" width="143.04347826086956" height="50" rx="2" class="nestedBox" clip-path="url(#dont-overlap-sidebar)" style="filter: url(&quot;#shadow&quot;); fill: rgb(133, 213, 250);"></rect><g class=""><use href="#epicIcon" x="424.28442028985506" y="939" class="icon"></use><text x="444.28442028985506" y="952" class="boxText" clip-path="url(#dont-overlap-sidebar)">Espacios de Color<tspan class="subtext"></tspan></text></g></g><g class="track"><title>Detección de Bordes</title><rect x="0" y="982" width="1440" height="66" class="nestedBg"></rect><g class="" clip-path="url(#sidebar-contents)"><use href="#epicIcon" x="40" y="1000" class="icon"></use><text x="60" y="1012">Detección de Bordes</text><text x="40" y="1030" class="date">Nov 20 - Dec 4</text><line x1="0" x2="1440" y1="1048" y2="1048" stroke="#e7e7e7"></line></g><rect x="414.28442028985506" y="990" width="143.04347826086956" height="50" rx="2" class="nestedBox" clip-path="url(#dont-overlap-sidebar)" style="filter: url(&quot;#shadow&quot;); fill: rgb(133, 213, 250);"></rect><g class=""><use href="#epicIcon" x="424.28442028985506" y="1005" class="icon"></use><text x="444.28442028985506" y="1018" class="boxText" clip-path="url(#dont-overlap-sidebar)">Detección de Bordes<tspan class="subtext"></tspan></text></g></g><g class="track"><title>Pruebas con Filtros</title><rect x="0" y="1048" width="1440" height="66" class="nestedBg"></rect><g class="" clip-path="url(#sidebar-contents)"><use href="#epicIcon" x="40" y="1066" class="icon"></use><text x="60" y="1078">Pruebas con Filtros</text><text x="40" y="1096" class="date">Nov 20 - Dec 4</text><line x1="0" x2="1440" y1="1114" y2="1114" stroke="#e7e7e7"></line></g><rect x="414.28442028985506" y="1056" width="143.04347826086956" height="50" rx="2" class="nestedBox" clip-path="url(#dont-overlap-sidebar)" style="filter: url(&quot;#shadow&quot;); fill: rgb(133, 213, 250);"></rect><g class=""><use href="#epicIcon" x="424.28442028985506" y="1071" class="icon"></use><text x="444.28442028985506" y="1084" class="boxText" clip-path="url(#dont-overlap-sidebar)">Pruebas con Filtros<tspan class="subtext"></tspan></text></g></g><g class="track"><title>Recolección de Datos</title><g class="" clip-path="url(#sidebar-contents)"><use href="#projectIcon" x="20" y="1132" class="icon"></use><text x="40" y="1144">Recolección de Datos</text><text x="20" y="1162" class="date">Nov 14 - Nov 27</text><line x1="0" x2="1440" y1="1180" y2="1180" stroke="#e7e7e7"></line></g><rect x="352.9800724637681" y="1122" width="132.82608695652175" height="50" rx="2" clip-path="url(#dont-overlap-sidebar)" style="filter: url(&quot;#shadow&quot;); fill: rgb(145, 226, 237);"></rect><g class=""><use href="#projectIcon" x="362.9800724637681" y="1137" class="icon"></use><text x="382.9800724637681" y="1150" class="boxText" clip-path="url(#dont-overlap-sidebar)">Recolección de Datos<tspan class="subtext">– No Epics yet</tspan></text></g></g><g class="track"><title>Selección y organización de las fotos</title><rect x="0" y="1180" width="1440" height="66" class="nestedBg"></rect><g class="" clip-path="url(#sidebar-contents)"><use href="#epicIcon" x="40" y="1198" class="icon"></use><text x="60" y="1210">Selección y organización de las fotos</text><text x="40" y="1228" class="date">Nov 22 - Nov 27</text><line x1="0" x2="1440" y1="1246" y2="1246" stroke="#e7e7e7"></line></g><rect x="434.71920289855075" y="1188" width="51.086956521739125" height="50" rx="2" class="nestedBox" clip-path="url(#dont-overlap-sidebar)" style="filter: url(&quot;#shadow&quot;); fill: rgb(145, 226, 237);"></rect><g class=""><use href="#epicIcon" x="444.71920289855075" y="1203" class="icon"></use><text x="464.71920289855075" y="1216" class="boxText" clip-path="url(#dont-overlap-sidebar)">Selección y organización de las fotos<tspan class="subtext"></tspan></text></g></g><g class="track"><title>Toma de Fotos</title><rect x="0" y="1246" width="1440" height="66" class="nestedBg"></rect><g class="" clip-path="url(#sidebar-contents)"><use href="#epicIcon" x="40" y="1264" class="icon"></use><text x="60" y="1276">Toma de Fotos</text><text x="40" y="1294" class="date">Nov 14 - Nov 22</text><line x1="0" x2="1440" y1="1312" y2="1312" stroke="#e7e7e7"></line></g><rect x="352.9800724637681" y="1254" width="81.73913043478262" height="50" rx="2" class="nestedBox" clip-path="url(#dont-overlap-sidebar)" style="filter: url(&quot;#shadow&quot;); fill: rgb(145, 226, 237);"></rect><g class=""><use href="#epicIcon" x="362.9800724637681" y="1269" class="icon"></use><text x="382.9800724637681" y="1282" class="boxText" clip-path="url(#dont-overlap-sidebar)">Toma de Fotos<tspan class="subtext"></tspan></text></g></g><g><rect x="0" y="0" width="1440" height="62" class="header" style="filter: url(&quot;#shadow&quot;);"></rect><a href="https://www.zenhub.com"><use href="#zhLogo" x="20" y="12" class="logoIcon"></use></a><text x="20" y="45" class="headerDate">November 20, 2021</text></g><g clip-path="url(#dont-overlap-sidebar)"><text x="227.3913043478261" y="30" class="tick">November 2021</text><text x="533.9130434782609" y="30" class="tick">December 2021</text><text x="850.6521739130435" y="30" class="tick">January 2022</text><text x="1167.391304347826" y="30" class="tick">February 2022</text><text x="1453.4782608695652" y="30" class="tick">March 2022</text>;</g><rect x="350" y="0" width="20" height="1324" fill="url(#sidebarShadow)"></rect><line x1="350" x2="350" y1="50" y2="1324" class="sidebarDivider"></line></svg>